<?xml version="1.0" standalone="no"?>
<!DOCTYPE svg PUBLIC "-//W3C//DTD SVG 20010904//EN"
 "http://www.w3.org/TR/2001/REC-SVG-20010904/DTD/svg10.dtd">
<svg version="1.0" xmlns="http://www.w3.org/2000/svg"
 width="700.000000pt" height="700.000000pt" viewBox="0 0 700.000000 700.000000"
 preserveAspectRatio="xMidYMid meet">
<metadata>
Created by potrace 1.14, written by Peter Selinger 2001-2017
</metadata>
<g transform="translate(0.000000,700.000000) scale(0.100000,-0.100000)"
fill="#000000" stroke="none">
<path d="M880 4045 l0 -1725 295 0 295 0 0 189 0 188 56 37 c31 21 61 35 67
33 7 -2 211 -158 455 -346 244 -187 445 -341 447 -341 7 0 350 470 350 479 0
5 -162 134 -360 286 -198 153 -360 281 -360 286 0 13 549 379 556 371 4 -4
147 -509 319 -1122 172 -613 316 -1123 319 -1133 4 -11 91 276 218 720 l212
738 0 -192 1 -193 300 0 300 0 2 443 3 444 879 -769 c484 -422 881 -768 883
-768 1 0 3 495 3 1100 l0 1100 -295 0 -295 0 -2 -443 -3 -444 -675 590 c-371
324 -676 595 -678 602 -2 7 74 281 168 610 94 329 169 599 168 601 -2 1 -128
40 -281 85 -167 50 -281 79 -286 73 -4 -5 -143 -483 -307 -1061 -164 -579
-302 -1053 -305 -1053 -3 0 -153 527 -334 1170 l-329 1170 -893 0 -893 0 0
-1725z m1483 603 c80 -287 145 -523 144 -524 -5 -4 -985 -663 -1009 -679 l-28
-17 0 871 0 871 373 0 373 0 147 -522z"/>
</g>
</svg>
